<svg fill="#333" xmlns="http://www.w3.org/2000/svg" xmlns:xlink="http://www.w3.org/1999/xlink" version="1.1" x="0px" y="0px" viewBox="25 25 50 50" enable-background="new 0 0 100 100" xml:space="preserve"><g><path d="M50,37.376c-6.972,0-12.623,5.651-12.623,12.623c0,6.971,5.651,12.623,12.623,12.623S62.622,56.971,62.622,50   C62.622,43.028,56.972,37.376,50,37.376z M50,58.623c-4.755,0-8.623-3.869-8.623-8.624c0-4.755,3.868-8.623,8.623-8.623   s8.622,3.868,8.622,8.623C58.622,54.754,54.755,58.623,50,58.623z"/><rect x="48" y="23.892" width="3.999" height="10.635"/><rect x="29.982" y="33.299" transform="matrix(0.7071 0.7071 -0.7071 0.7071 35.299 -14.6216)" width="10.636" height="4"/><rect x="23.892" y="48" width="10.636" height="4"/><rect x="33.299" y="59.383" transform="matrix(-0.7071 -0.7071 0.7071 -0.7071 14.5086 135.411)" width="4" height="10.636"/><rect x="47.999" y="65.472" width="4" height="10.637"/><rect x="59.382" y="62.701" transform="matrix(-0.707 -0.7072 0.7072 -0.707 64.6868 156.2014)" width="10.636" height="4"/><rect x="65.472" y="48" width="10.637" height="4"/><rect x="62.701" y="29.981" transform="matrix(0.7071 0.7071 -0.7071 0.7071 43.9109 -35.4117)" width="4" height="10.636"/></g></svg>
